<svg width="1450" height="250" xmlns="http://www.w3.org/2000/svg">
    <!-- First Rectangle for Employer Coverage -->
    <rect x="40" y="10" width="{{ employer * 1300 }}" height="50" style="fill:#FF6347;stroke:black;stroke-width:1" />
    <line x1="40" y1="60" x2="40" y2="80" style="stroke:#000000;stroke-width:1"/>
    <text x="40" y="95" style="fill:#000000;font-size:14px;">Employer ({{ (employer * 100) }}%)</text>
    
    <!-- Second Rectangle for Non-Group Coverage -->
    <rect x="{{ employer * 1300 + 40 }}" y="10" width="{{ nongroup * 1300 }}" height="50" style="fill:#FFD700;stroke:black;stroke-width:1" />
    <line x1="{{ employer * 1300 + 40 }}" y1="60" x2="{{ employer * 1300 + 40 }}" y2="110" style="stroke:#000000;stroke-width:1"/>
    <text x="{{ employer * 1300 + 40 }}" y="125" style="fill:#000000;font-size:14px;">Non-Group ({{ (nongroup * 100)}}%)</text>
    
    <!-- Third Rectangle for Medicaid Coverage -->
    <rect x="{{ (employer + nongroup) * 1300 + 40 }}" y="10" width="{{ medicaid * 1300 }}" height="50" style="fill:#4682B4;stroke:black;stroke-width:1" />
    <line x1="{{ (employer + nongroup) * 1300 + 40 }}" y1="60" x2="{{ (employer + nongroup) * 1300 + 40 }}" y2="80" style="stroke:#000000;stroke-width:1"/>
    <text x="{{ (employer + nongroup) * 1300 + 40 }}" y="95" style="fill:#000000;font-size:14px;">Medicaid ({{ (medicaid * 100) }}%)</text>
    
    <!-- Fourth Rectangle for Medicare Coverage -->
    <rect x="{{ (employer + nongroup + medicaid) * 1300 + 40 }}" y="10" width="{{ medicare * 1300 }}" height="50" style="fill:#32CD32;stroke:black;stroke-width:1" />
    <line x1="{{ (employer + nongroup + medicaid) * 1300 + 40 }}" y1="60" x2="{{ (employer + nongroup + medicaid) * 1300 + 40 }}" y2="110" style="stroke:#000000;stroke-width:1"/>
    <text x="{{ (employer + nongroup + medicaid) * 1300 + 40 }}" y="125" style="fill:#000000;font-size:14px;">Medicare ({{ (medicare * 100) }}%)</text>
    
    <!-- Fifth Rectangle for Military Coverage -->
    <rect x="{{ (employer + nongroup + medicaid + medicare) * 1300 + 40 }}" y="10" width="{{ military * 1300 }}" height="50" style="fill:#8A2BE2;stroke:black;stroke-width:1" />
    <line x1="{{ (employer + nongroup + medicaid + medicare) * 1300 + 40 }}" y1="60" x2="{{ (employer + nongroup + medicaid + medicare) * 1300 + 40 }}" y2="80" style="stroke:#000000;stroke-width:1"/>
    <text x="{{ (employer + nongroup + medicaid + medicare) * 1300 + 40 }}" y="95" style="fill:#000000;font-size:14px;">Military ({{ (military * 100) }}%)</text>
    
    <!-- Sixth Rectangle for Uninsured -->
    <rect x="{{ (employer + nongroup + medicaid + medicare + military) * 1300 + 40 }}" y="10" width="{{ uninsured * 1300 }}" height="50" style="fill:#FFA500;stroke:black;stroke-width:1" />
    <line x1="{{ (employer + nongroup + medicaid + medicare + military) * 1300 + 40 }}" y1="60" x2="{{ (employer + nongroup + medicaid + medicare + military) * 1300 + 40 }}" y2="110" style="stroke:#000000;stroke-width:1"/>
    <text x="{{ (employer + nongroup + medicaid + medicare + military) * 1300 + 40 }}" y="125" style="fill:#000000;font-size:14px;">Uninsured ({{ (uninsured * 100) }}%)</text>
</svg>
